<?xml version="1.0" encoding="utf-8"?>
<!-- Generator: Adobe Illustrator 14.0.0, SVG Export Plug-In . SVG Version: 6.00 Build 43363)  -->
<!DOCTYPE svg PUBLIC "-//W3C//DTD SVG 1.1//EN" "http://www.w3.org/Graphics/SVG/1.1/DTD/svg11.dtd">
<svg version="1.1" id="Calque_1" xmlns="http://www.w3.org/2000/svg" xmlns:xlink="http://www.w3.org/1999/xlink" x="0px" y="0px"
	 width="48px" height="48px" viewBox="0 0 48 48" enable-background="new 0 0 48 48" xml:space="preserve">
<path fill="none" d="M0,0h48v48H0V0z"/>
<linearGradient id="SVGID_1_" gradientUnits="userSpaceOnUse" x1="45.3037" y1="44.2744" x2="1.5537" y2="1.5244">
	<stop  offset="0" style="stop-color:#935DF2"/>
	<stop  offset="1" style="stop-color:#E0871B"/>
</linearGradient>
<path fill="url(#SVGID_1_)" d="M2.82,2.26L0,5.08l8.78,8.78l4.42,9.32l-2.7,4.9C10.18,28.641,10,29.3,10,30c0,2.2,1.8,4,4,4h14.92
	l2.76,2.76c-1,0.721-1.66,1.9-1.66,3.24c0,2.2,1.78,4,3.98,4c1.34,0,2.52-0.66,3.24-1.68L42.92,48l2.82-2.82L2.82,2.26z M14,30
	l2.2-4h4.72l4,4H14z M40,8H14.24l4,4h18.38L31.1,22h-2.879l3.879,3.88c1.08-0.28,1.98-0.979,2.5-1.94l7.16-12.98
	C42.5,9.64,41.52,8,40,8z M14,36c-2.2,0-3.98,1.8-3.98,4s1.78,4,3.98,4s4-1.8,4-4S16.2,36,14,36z"/>
</svg>
